<svg width="253" height="135" viewBox="0 0 253 135" fill="none" xmlns="http://www.w3.org/2000/svg">
<path d="M12.05 105V106H13.05V105H12.05ZM0.350001 105H-0.649999V106H0.350001V105ZM0.350001 -7.15256e-06V-1.00001H-0.649999V-7.15256e-06H0.350001ZM12.05 -7.15256e-06H13.05V-1.00001H12.05V-7.15256e-06ZM12.05 42.3H11.05V43.3H12.05V42.3ZM13.85 42.3V43.3H14.4271L14.7159 42.8003L13.85 42.3ZM24.65 32.1L25.0972 32.9944L25.1049 32.9906L25.1126 32.9866L24.65 32.1ZM63.5 38.4L62.7818 39.0958L62.7873 39.1015L62.7929 39.1071L63.5 38.4ZM71 50.25L70.0661 50.6076L70.0694 50.6162L70.0729 50.6248L71 50.25ZM71.15 85.5L70.2161 85.1424L70.2161 85.1424L71.15 85.5ZM63.65 97.35L62.9429 96.6429L62.9373 96.6485L62.9318 96.6542L63.65 97.35ZM52.7 104.7L53.056 105.634L53.0656 105.631L53.0752 105.627L52.7 104.7ZM32 106.2L32.2334 105.228L32.2148 105.223L32.1961 105.219L32 106.2ZM24.8 103.8L24.3211 104.678L24.3445 104.691L24.3685 104.702L24.8 103.8ZM18.65 99.6L17.9832 100.345L17.9944 100.355L18.0059 100.365L18.65 99.6ZM13.85 93.6L14.7206 93.1079L14.4335 92.6H13.85V93.6ZM12.05 93.6V92.6H11.05V93.6H12.05ZM46.85 94.2L47.2214 95.1285L47.2346 95.1232L47.2476 95.1176L46.85 94.2ZM54.65 88.8L53.9429 88.0929L53.935 88.1007L53.9274 88.1088L54.65 88.8ZM59.9 80.4L58.9696 80.0335L58.9647 80.0458L58.9602 80.0583L59.9 80.4ZM59.9 55.5L58.9602 55.8417L58.9666 55.8592L58.9735 55.8764L59.9 55.5ZM54.65 47.1L53.9128 47.7757L53.9275 47.7917L53.9429 47.8071L54.65 47.1ZM46.7 41.55L46.3024 42.4676L46.3133 42.4722L46.7 41.55ZM27.2 41.7L27.5976 42.6176L27.6103 42.612L27.6229 42.6062L27.2 41.7ZM19.25 47.25L18.528 46.5581L18.5203 46.5661L18.5128 46.5743L19.25 47.25ZM14 55.95L14.9305 56.3165L14.9341 56.3071L14 55.95ZM14 79.95L13.0659 80.3072L13.0696 80.3165L14 79.95ZM19.25 88.5L18.5128 89.1757L18.5203 89.1839L18.528 89.1919L19.25 88.5ZM27.2 94.05L27.5976 93.1324L27.5976 93.1324L27.2 94.05ZM12.05 104H0.350001V106H12.05V104ZM1.35 105V-7.15256e-06H-0.649999V105H1.35ZM0.350001 0.999993H12.05V-1.00001H0.350001V0.999993ZM11.05 -7.15256e-06V42.3H13.05V-7.15256e-06H11.05ZM12.05 43.3H13.85V41.3H12.05V43.3ZM14.7159 42.8003C17.219 38.4679 20.6743 35.2059 25.0972 32.9944L24.2028 31.2056C19.4257 33.5941 15.681 37.1321 12.9841 41.7997L14.7159 42.8003ZM25.1126 32.9866C29.5639 30.6642 34.4043 29.5 39.65 29.5V27.5C34.0957 27.5 28.9361 28.7358 24.1874 31.2134L25.1126 32.9866ZM39.65 29.5C44.1234 29.5 48.3428 30.3259 52.317 31.9737L53.083 30.1263C48.8572 28.3741 44.3766 27.5 39.65 27.5V29.5ZM52.317 31.9737C56.2904 33.6212 59.7764 35.9935 62.7818 39.0958L64.2182 37.7042C61.0236 34.4065 57.3096 31.8788 53.083 30.1263L52.317 31.9737ZM62.7929 39.1071C65.883 42.1972 68.3107 46.024 70.0661 50.6076L71.9339 49.8924C70.0893 45.076 67.517 41.0028 64.2071 37.6929L62.7929 39.1071ZM70.0729 50.6248C71.9168 55.186 72.85 60.4053 72.85 66.3H74.85C74.85 60.1947 73.8832 54.714 71.9271 49.8752L70.0729 50.6248ZM72.85 66.3V69.3H74.85V66.3H72.85ZM72.85 69.3C72.85 75.3029 71.9642 80.5779 70.2161 85.1424L72.0839 85.8576C73.9358 81.0221 74.85 75.4971 74.85 69.3H72.85ZM70.2161 85.1424C68.4607 89.726 66.033 93.5528 62.9429 96.6429L64.3571 98.0571C67.667 94.7472 70.2393 90.674 72.0839 85.8576L70.2161 85.1424ZM62.9318 96.6542C59.9304 99.7524 56.3979 102.124 52.3248 103.773L53.0752 105.627C57.4021 103.876 61.1696 101.348 64.3682 98.0458L62.9318 96.6542ZM52.344 103.766C48.2629 105.32 43.934 106.1 39.35 106.1V108.1C44.166 108.1 48.7372 107.28 53.056 105.634L52.344 103.766ZM39.35 106.1C37.034 106.1 34.6623 105.811 32.2334 105.228L31.7666 107.172C34.3377 107.789 36.866 108.1 39.35 108.1V106.1ZM32.1961 105.219C29.7775 104.736 27.4566 103.962 25.2315 102.898L24.3685 104.702C26.7434 105.838 29.2225 106.664 31.8039 107.181L32.1961 105.219ZM25.2789 102.922C23.1371 101.754 21.1425 100.392 19.2941 98.8351L18.0059 100.365C19.9575 102.008 22.0629 103.446 24.3211 104.678L25.2789 102.922ZM19.3168 98.8548C17.501 97.2301 15.9689 95.3165 14.7206 93.1079L12.9794 94.0921C14.3311 96.4835 15.999 98.5699 17.9832 100.345L19.3168 98.8548ZM13.85 92.6H12.05V94.6H13.85V92.6ZM11.05 93.6V105H13.05V93.6H11.05ZM36.95 97C40.6627 97 44.0905 96.3808 47.2214 95.1285L46.4786 93.2715C43.6095 94.4192 40.4373 95 36.95 95V97ZM47.2476 95.1176C50.3665 93.766 53.0779 91.8902 55.3726 89.4912L53.9274 88.1088C51.8221 90.3098 49.3335 92.034 46.4524 93.2824L47.2476 95.1176ZM55.3571 89.5071C57.7685 87.0957 59.5939 84.168 60.8398 80.7417L58.9602 80.0583C57.8061 83.232 56.1315 85.9043 53.9429 88.0929L55.3571 89.5071ZM60.8304 80.7665C62.183 77.3331 62.85 73.5061 62.85 69.3H60.85C60.85 73.2939 60.217 76.8669 58.9696 80.0335L60.8304 80.7665ZM62.85 69.3V66.3H60.85V69.3H62.85ZM62.85 66.3C62.85 62.1911 62.1821 58.4605 60.8265 55.1236L58.9735 55.8764C60.2179 58.9395 60.85 62.4089 60.85 66.3H62.85ZM60.8398 55.1583C59.5939 51.732 57.7685 48.8043 55.3571 46.3929L53.9429 47.8071C56.1315 49.9957 57.8061 52.668 58.9602 55.8417L60.8398 55.1583ZM55.3872 46.4243C53.0863 43.9143 50.3155 41.9818 47.0867 40.6278L46.3133 42.4722C49.2845 43.7182 51.8137 45.4857 53.9128 47.7757L55.3872 46.4243ZM47.0976 40.6324C43.9634 39.2743 40.577 38.6 36.95 38.6V40.6C40.323 40.6 43.4366 41.2257 46.3024 42.4676L47.0976 40.6324ZM36.95 38.6C33.3124 38.6 29.9171 39.3285 26.7771 40.7938L27.6229 42.6062C30.4829 41.2715 33.5876 40.6 36.95 40.6V38.6ZM26.8024 40.7824C23.6783 42.1362 20.9185 44.0637 18.528 46.5581L19.972 47.9419C22.1815 45.6363 24.7217 43.8638 27.5976 42.6176L26.8024 40.7824ZM18.5128 46.5743C16.2183 49.0775 14.4056 52.0891 13.0659 55.5929L14.9341 56.3071C16.1944 53.0109 17.8817 50.2225 19.9872 47.9257L18.5128 46.5743ZM13.0696 55.5835C11.7181 59.0142 11.05 62.7905 11.05 66.9H13.05C13.05 63.0095 13.6819 59.4858 14.9304 56.3165L13.0696 55.5835ZM11.05 66.9V68.7H13.05V66.9H11.05ZM11.05 68.7C11.05 72.9068 11.7172 76.7796 13.0659 80.3071L14.9341 79.5929C13.6828 76.3204 13.05 72.6932 13.05 68.7H11.05ZM13.0696 80.3165C14.4105 83.7203 16.2229 86.6776 18.5128 89.1757L19.9872 87.8243C17.8771 85.5224 16.1895 82.7797 14.9304 79.5835L13.0696 80.3165ZM18.528 89.1919C20.9185 91.6863 23.6783 93.6138 26.8024 94.9676L27.5976 93.1324C24.7217 91.8862 22.1815 90.1137 19.972 87.8081L18.528 89.1919ZM26.8024 94.9676C29.9366 96.3257 33.323 97 36.95 97V95C33.577 95 30.4634 94.3743 27.5976 93.1324L26.8024 94.9676ZM147.996 30.6V29.6H146.996V30.6H147.996ZM159.696 30.6H160.696V29.6H159.696V30.6ZM159.696 105V106H160.696V105H159.696ZM147.996 105H146.996V106H147.996V105ZM147.996 91.5H148.996V90.5H147.996V91.5ZM146.196 91.5V90.5H145.578L145.301 91.0528L146.196 91.5ZM136.746 102.9L137.329 103.712L137.329 103.712L136.746 102.9ZM110.496 105L110.867 104.072L110.86 104.069L110.853 104.066L110.496 105ZM101.646 99L100.898 99.6644L100.905 99.672L100.912 99.6794L101.646 99ZM95.9457 88.95L94.9947 89.2591L94.9981 89.2698L95.0018 89.2803L95.9457 88.95ZM93.9957 30.6V29.6H92.9957V30.6H93.9957ZM105.696 30.6H106.696V29.6H105.696V30.6ZM110.496 90.6L111.243 89.9356L111.243 89.9356L110.496 90.6ZM141.846 88.8L141.079 88.1583L141.077 88.1598L141.846 88.8ZM147.996 31.6H159.696V29.6H147.996V31.6ZM158.696 30.6V105H160.696V30.6H158.696ZM159.696 104H147.996V106H159.696V104ZM148.996 105V91.5H146.996V105H148.996ZM147.996 90.5H146.196V92.5H147.996V90.5ZM145.301 91.0528C142.965 95.725 139.916 99.393 136.163 102.088L137.329 103.712C141.376 100.807 144.626 96.875 147.09 91.9472L145.301 91.0528ZM136.163 102.088C132.471 104.738 127.739 106.1 121.896 106.1V108.1C128.052 108.1 133.221 106.662 137.329 103.712L136.163 102.088ZM121.896 106.1C117.912 106.1 114.239 105.42 110.867 104.072L110.124 105.928C113.752 107.38 117.68 108.1 121.896 108.1V106.1ZM110.853 104.066C107.598 102.821 104.776 100.909 102.379 98.3206L100.912 99.6794C103.515 102.491 106.594 104.579 110.139 105.934L110.853 104.066ZM102.393 98.3356C100.093 95.7484 98.2538 92.5176 96.8896 88.6196L95.0018 89.2803C96.4376 93.3824 98.398 96.8516 100.898 99.6644L102.393 98.3356ZM96.8967 88.6409C95.6363 84.7628 94.9957 80.2211 94.9957 75H92.9957C92.9957 80.3789 93.6551 85.1372 94.9947 89.2591L96.8967 88.6409ZM94.9957 75V30.6H92.9957V75H94.9957ZM93.9957 31.6H105.696V29.6H93.9957V31.6ZM104.696 30.6V73.5H106.696V30.6H104.696ZM104.696 73.5C104.696 81.4021 106.311 87.3971 109.748 91.2644L111.243 89.9356C108.281 86.6029 106.696 81.1979 106.696 73.5H104.696ZM109.748 91.2644C113.201 95.1483 118.42 97 125.196 97V95C118.771 95 114.191 93.2517 111.243 89.9356L109.748 91.2644ZM125.196 97C132.547 97 138.397 94.5009 142.614 89.4402L141.077 88.1598C137.295 92.6991 132.044 95 125.196 95V97ZM142.613 89.4417C146.9 84.3179 148.996 77.5703 148.996 69.3H146.996C146.996 77.2297 144.992 83.4821 141.079 88.1583L142.613 89.4417ZM148.996 69.3V30.6H146.996V69.3H148.996ZM240.741 91.5H241.741V90.5H240.741V91.5ZM238.941 91.5V90.5H238.323L238.047 91.0528L238.941 91.5ZM229.491 102.9L230.075 103.712L230.075 103.712L229.491 102.9ZM203.241 105L203.613 104.072L203.606 104.069L203.599 104.066L203.241 105ZM194.391 99L193.644 99.6644L193.651 99.672L193.658 99.6794L194.391 99ZM188.691 88.95L187.74 89.2591L187.744 89.2698L187.748 89.2803L188.691 88.95ZM186.741 30.6V29.6H185.741V30.6H186.741ZM198.441 30.6H199.441V29.6H198.441V30.6ZM234.591 88.8L233.824 88.1583L233.823 88.1598L234.591 88.8ZM240.741 30.6V29.6H239.741V30.6H240.741ZM252.441 30.6H253.441V29.6H252.441V30.6ZM249.141 131.7L248.434 130.993L248.426 131.001L248.418 131.01L249.141 131.7ZM198.441 135H197.441V136H198.441V135ZM198.441 124.2V123.2H197.441V124.2H198.441ZM240.741 90.5H238.941V92.5H240.741V90.5ZM238.047 91.0528C235.711 95.725 232.661 99.393 228.908 102.088L230.075 103.712C234.121 100.807 237.372 96.875 239.836 91.9472L238.047 91.0528ZM228.908 102.088C225.217 104.738 220.485 106.1 214.641 106.1V108.1C220.798 108.1 225.966 106.662 230.075 103.712L228.908 102.088ZM214.641 106.1C210.657 106.1 206.985 105.42 203.613 104.072L202.87 105.928C206.498 107.38 210.425 108.1 214.641 108.1V106.1ZM203.599 104.066C200.344 102.821 197.522 100.909 195.125 98.3206L193.658 99.6794C196.261 102.491 199.339 104.579 202.884 105.934L203.599 104.066ZM195.139 98.3356C192.839 95.7484 191 92.5176 189.635 88.6196L187.748 89.2803C189.183 93.3824 191.144 96.8516 193.644 99.6644L195.139 98.3356ZM189.642 88.6409C188.382 84.7628 187.741 80.2211 187.741 75H185.741C185.741 80.3789 186.401 85.1372 187.74 89.2591L189.642 88.6409ZM187.741 75V30.6H185.741V75H187.741ZM186.741 31.6H198.441V29.6H186.741V31.6ZM197.441 30.6V73.5H199.441V30.6H197.441ZM197.441 73.5C197.441 81.4021 199.056 87.3971 202.494 91.2644L203.989 89.9356C201.026 86.6029 199.441 81.1979 199.441 73.5H197.441ZM202.494 91.2644C205.946 95.1483 211.166 97 217.941 97V95C211.517 95 206.936 93.2517 203.989 89.9356L202.494 91.2644ZM217.941 97C225.293 97 231.142 94.5009 235.36 89.4402L233.823 88.1598C230.04 92.6991 224.79 95 217.941 95V97ZM235.358 89.4417C239.646 84.3179 241.741 77.5703 241.741 69.3H239.741C239.741 77.2297 237.737 83.4821 233.824 88.1583L235.358 89.4417ZM241.741 69.3V30.6H239.741V69.3H241.741ZM240.741 31.6H252.441V29.6H240.741V31.6ZM251.441 30.6V123.3H253.441V30.6H251.441ZM251.441 123.3C251.441 126.462 250.428 128.999 248.434 130.993L249.849 132.407C252.254 130.001 253.441 126.938 253.441 123.3H251.441ZM248.418 131.01C246.53 132.988 244.054 134 240.891 134V136C244.529 136 247.553 134.812 249.865 132.39L248.418 131.01ZM240.891 134H198.441V136H240.891V134ZM199.441 135V124.2H197.441V135H199.441ZM198.441 125.2H236.691V123.2H198.441V125.2ZM236.691 125.2C238.224 125.2 239.549 124.769 240.472 123.744C241.377 122.739 241.741 121.33 241.741 119.7H239.741C239.741 121.07 239.431 121.911 238.986 122.406C238.558 122.881 237.858 123.2 236.691 123.2V125.2ZM241.741 119.7V91.5H239.741V119.7H241.741Z" fill="black"/>
</svg>
