<svg width="338" height="251" viewBox="0 0 338 251" fill="none" xmlns="http://www.w3.org/2000/svg">
<path fill-rule="evenodd" clip-rule="evenodd" d="M338 0H0V251H338V0ZM45.35 182H57.05V170.6H58.85C60.15 172.9 61.75 174.9 63.65 176.6C65.55 178.2 67.6 179.6 69.8 180.8C72.1 181.9 74.5 182.7 77 183.2C79.5 183.8 81.95 184.1 84.35 184.1C89.05 184.1 93.5 183.3 97.7 181.7C101.9 180 105.55 177.55 108.65 174.35C111.85 171.15 114.35 167.2 116.15 162.5C117.95 157.8 118.85 152.4 118.85 146.3V143.3C118.85 137.3 117.9 131.95 116 127.25C114.2 122.55 111.7 118.6 108.5 115.4C105.4 112.2 101.8 109.75 97.7 108.05C93.6 106.35 89.25 105.5 84.65 105.5C79.25 105.5 74.25 106.7 69.65 109.1C65.05 111.4 61.45 114.8 58.85 119.3H57.05V77H45.35V182ZM91.85 171.2C88.85 172.4 85.55 173 81.95 173C78.45 173 75.2 172.35 72.2 171.05C69.2 169.75 66.55 167.9 64.25 165.5C62.05 163.1 60.3 160.25 59 156.95C57.7 153.55 57.05 149.8 57.05 145.7V143.9C57.05 139.9 57.7 136.25 59 132.95C60.3 129.55 62.05 126.65 64.25 124.25C66.55 121.85 69.2 120 72.2 118.7C75.2 117.3 78.45 116.6 81.95 116.6C85.45 116.6 88.7 117.25 91.7 118.55C94.8 119.85 97.45 121.7 99.65 124.1C101.95 126.4 103.7 129.2 104.9 132.5C106.2 135.7 106.85 139.3 106.85 143.3V146.3C106.85 150.4 106.2 154.1 104.9 157.4C103.7 160.7 101.95 163.5 99.65 165.8C97.45 168.1 94.85 169.9 91.85 171.2ZM204.696 107.6H192.996V146.3C192.996 154.4 190.946 160.9 186.846 165.8C182.846 170.6 177.296 173 170.196 173C163.596 173 158.696 171.2 155.496 167.6C152.296 164 150.696 158.3 150.696 150.5V107.6H138.996V152C138.996 157.3 139.646 161.95 140.946 165.95C142.346 169.95 144.246 173.3 146.646 176C149.146 178.7 152.096 180.7 155.496 182C158.996 183.4 162.796 184.1 166.896 184.1C172.896 184.1 177.846 182.7 181.746 179.9C185.646 177.1 188.796 173.3 191.196 168.5H192.996V182H204.696V107.6ZM283.941 168.5H285.741V196.7C285.741 199.7 284.391 201.2 281.691 201.2H243.441V212H285.891C289.291 212 292.041 210.9 294.141 208.7C296.341 206.5 297.441 203.7 297.441 200.3V107.6H285.741V146.3C285.741 154.4 283.691 160.9 279.591 165.8C275.591 170.6 270.041 173 262.941 173C256.341 173 251.441 171.2 248.241 167.6C245.041 164 243.441 158.3 243.441 150.5V107.6H231.741V152C231.741 157.3 232.391 161.95 233.691 165.95C235.091 169.95 236.991 173.3 239.391 176C241.891 178.7 244.841 180.7 248.241 182C251.741 183.4 255.541 184.1 259.641 184.1C265.641 184.1 270.591 182.7 274.491 179.9C278.391 177.1 281.541 173.3 283.941 168.5Z" fill="black"/>
</svg>
