<svg width="255" height="137" viewBox="0 0 255 137" fill="none" xmlns="http://www.w3.org/2000/svg">
<path fill-rule="evenodd" clip-rule="evenodd" d="M12.7 107H13.7V106V95.6H13.924C15.2211 97.7801 16.7908 99.6968 18.6332 101.345L18.6444 101.355L18.6559 101.365C20.6075 103.008 22.7129 104.446 24.9711 105.678L24.9945 105.691L25.0185 105.702C27.3877 106.835 29.8605 107.66 32.4352 108.177C34.9998 108.791 37.522 109.1 40 109.1C44.816 109.1 49.3872 108.28 53.706 106.634L53.7156 106.631L53.7252 106.627C58.0495 104.877 61.8149 102.351 65.0123 99.0519C68.3197 95.743 70.8903 91.6715 72.7339 86.8577C74.5858 82.0221 75.5 76.4971 75.5 70.3V67.3C75.5 61.1982 74.5343 55.7204 72.5805 50.8836C70.7372 46.0737 68.1678 42.0052 64.8626 38.6983C61.6692 35.4035 57.9571 32.8777 53.733 31.1263C49.5072 29.3741 45.0266 28.5 40.3 28.5C34.7487 28.5 29.5917 29.7345 24.8451 32.2094C20.2437 34.5119 16.6005 37.8813 13.9295 42.3H13.7V1V0H12.7H1H0V1V106V107H1H12.7ZM19.3 100.6C19.0625 100.388 18.8297 100.17 18.6016 99.9484C17.0047 98.3953 15.6375 96.6125 14.5 94.6H13.7H12.7V95.6V105V106H11.7H2H1V105V2V1H2H11.7H12.7V2V42.3V43.3H13.7H14.5C17.1 38.8 20.7 35.4 25.3 33.1C25.875 32.8 26.4563 32.5188 27.0438 32.2563C31.1562 30.4188 35.575 29.5 40.3 29.5C44.9 29.5 49.25 30.35 53.35 32.05C57.45 33.75 61.05 36.2 64.15 39.4C67.35 42.6 69.85 46.55 71.65 51.25C73.55 55.95 74.5 61.3 74.5 67.3V70.3C74.5 76.4 73.6 81.8 71.8 86.5C70 91.2 67.5 95.15 64.3 98.35C61.2 101.55 57.55 104 53.35 105.7C49.15 107.3 44.7 108.1 40 108.1C37.6 108.1 35.15 107.8 32.65 107.2C30.15 106.7 27.75 105.9 25.45 104.8C25.3125 104.725 25.1756 104.649 25.0393 104.573C22.9943 103.424 21.0813 102.1 19.3 100.6ZM54.5929 89.0929L54.585 89.1008L54.5774 89.1088C52.4752 91.3065 49.9907 93.0289 47.1151 94.277C44.2495 95.421 41.0818 96 37.6 96C34.227 96 31.1134 95.3743 28.2476 94.1325C25.375 92.8877 22.8373 91.1177 20.6295 88.816C18.5241 86.5169 16.8397 83.7785 15.5823 80.5882C14.3322 77.3169 13.7 73.6914 13.7 69.7V67.9C13.7 64.0095 14.3319 60.4858 15.5805 57.3166L15.5841 57.3071C16.8429 54.0149 18.5277 51.2292 20.6297 48.9339C22.8374 46.6322 25.3751 44.8623 28.2476 43.6176L28.2603 43.612L28.2729 43.6062C31.1329 42.2715 34.2376 41.6 37.6 41.6C40.973 41.6 44.0866 42.2257 46.9524 43.4676L46.9524 43.4676L46.9633 43.4722C49.9345 44.7182 52.4637 46.4857 54.5628 48.7757L54.5775 48.7917L54.5929 48.8071C56.7815 50.9958 58.4561 53.668 59.6102 56.8418L59.6166 56.8592L59.6235 56.8764C60.8679 59.9395 61.5 63.4089 61.5 67.3V70.3C61.5 74.2939 60.867 77.8669 59.6196 81.0335L59.6147 81.0458L59.6102 81.0583C58.4561 84.232 56.7815 86.9043 54.5929 89.0929ZM37.6 97C41.2 97 44.5 96.4 47.5 95.2C50.5 93.9 53.1 92.1 55.3 89.8C55.5875 89.5125 55.8664 89.2172 56.1367 88.9141C58.0289 86.7922 59.5 84.2875 60.55 81.4C61.85 78.1 62.5 74.4 62.5 70.3V67.3C62.5 67.05 62.4975 66.8016 62.4924 66.5547C62.4162 62.8516 61.7688 59.5 60.55 56.5C59.35 53.2 57.6 50.4 55.3 48.1C53.1 45.7 50.45 43.85 47.35 42.55C44.35 41.25 41.1 40.6 37.6 40.6C34.1 40.6 30.85 41.3 27.85 42.7C24.85 44 22.2 45.85 19.9 48.25C17.7 50.65 15.95 53.55 14.65 56.95C13.35 60.25 12.7 63.9 12.7 67.9V69.7C12.7 73.8 13.35 77.55 14.65 80.95C15.95 84.25 17.7 87.1 19.9 89.5C22.2 91.9 24.85 93.75 27.85 95.05C30.85 96.35 34.1 97 37.6 97ZM148.646 30.6H147.646V31.6V70.3C147.646 78.2297 145.642 84.4821 141.729 89.1583L141.727 89.1598C137.945 93.6991 132.694 96 125.846 96C119.421 96 114.841 94.2517 111.893 90.9356C108.931 87.6029 107.346 82.1979 107.346 74.5V31.6V30.6H106.346H94.6457H93.6457V31.6V76C93.6457 81.3789 94.3051 86.1372 95.6447 90.2591L95.6481 90.2698L95.6518 90.2804C97.0876 94.3825 99.048 97.8516 101.548 100.664L101.555 100.672L101.562 100.679C104.163 103.489 107.239 105.576 110.781 106.931C114.407 108.381 118.332 109.1 122.546 109.1C128.702 109.1 133.871 107.662 137.979 104.712C141.873 101.916 145.03 98.1699 147.458 93.5H147.646V106V107H148.646H160.346H161.346V106V31.6V30.6H160.346H148.646ZM122.546 108.1C118.446 108.1 114.646 107.4 111.146 106C107.746 104.7 104.796 102.7 102.296 100C99.8957 97.3 97.9957 93.95 96.5957 89.95C95.2957 85.95 94.6457 81.3 94.6457 76V32.6V31.6H95.6457H105.346H106.346V32.6V74.5C106.346 82.3 107.946 88 111.146 91.6C114.346 95.2 119.246 97 125.846 97C132.946 97 138.496 94.6 142.496 89.8C146.596 84.9 148.646 78.4 148.646 70.3V32.6V31.6H149.646H159.346H160.346V32.6V105V106H159.346H149.646H148.646V105V93.5V92.5H147.646H146.846C144.446 97.3 141.296 101.1 137.396 103.9C136.908 104.25 136.404 104.578 135.884 104.884C132.242 107.028 127.796 108.1 122.546 108.1ZM187.391 30.6H186.391V31.6V76C186.391 81.3789 187.051 86.1372 188.39 90.2591L188.394 90.2698L188.398 90.2804C189.833 94.3825 191.794 97.8516 194.294 100.664L194.301 100.672L194.308 100.679C196.909 103.489 199.985 105.576 203.526 106.931C207.153 108.381 211.078 109.1 215.291 109.1C221.448 109.1 226.616 107.662 230.725 104.712C234.619 101.916 237.776 98.1699 240.204 93.5H240.391V120.7C240.391 122.07 240.081 122.911 239.636 123.406C239.208 123.881 238.508 124.2 237.341 124.2H199.091H198.091V125.2V136V137H199.091H241.541C245.175 137 248.196 135.815 250.507 133.399C252.907 130.994 254.091 127.934 254.091 124.3V31.6V30.6H253.091H241.391H240.391V31.6V70.3C240.391 78.2297 238.387 84.4821 234.474 89.1583L234.473 89.1598C230.69 93.6991 225.44 96 218.591 96C212.167 96 207.586 94.2517 204.639 90.9356C201.676 87.6029 200.091 82.1979 200.091 74.5V31.6V30.6H199.091H187.391ZM215.291 108.1C211.191 108.1 207.391 107.4 203.891 106C200.491 104.7 197.541 102.7 195.041 100C192.641 97.3 190.741 93.95 189.341 89.95C188.041 85.95 187.391 81.3 187.391 76V32.6V31.6H188.391H198.091H199.091V32.6V74.5C199.091 82.3 200.691 88 203.891 91.6C207.091 95.2 211.991 97 218.591 97C225.691 97 231.241 94.6 235.241 89.8C239.341 84.9 241.391 78.4 241.391 70.3V32.6V31.6H242.391H252.091H253.091V32.6V124.3C253.091 127.7 251.991 130.5 249.791 132.7C249.529 132.975 249.256 133.233 248.973 133.473C246.994 135.158 244.516 136 241.541 136H200.091H199.091V135V126.2V125.2H200.091H237.341C240.041 125.2 241.391 123.7 241.391 120.7V93.5V92.5H240.391H239.591C237.191 97.3 234.041 101.1 230.141 103.9C229.654 104.25 229.15 104.578 228.63 104.884C224.987 107.028 220.541 108.1 215.291 108.1Z" fill="black"/>
</svg>
